<svg aria-hidden="true" xmlns="http://www.w3.org/2000/svg" xmlns:xlink="http://www.w3.org/1999/xlink"><symbol viewBox="0 0 14 8" id="arrow" xmlns="http://www.w3.org/2000/svg">
<path fill-rule="evenodd" clip-rule="evenodd" d="M13.7071 0.292893C13.3166 -0.0976309 12.6834 -0.0976309 12.2929 0.292893L7 5.58579L1.70711 0.292893C1.31658 -0.0976311 0.683417 -0.0976311 0.292893 0.292893C-0.097631 0.683418 -0.097631 1.31658 0.292893 1.70711L6.29289 7.70711C6.68342 8.09763 7.31658 8.09763 7.70711 7.70711L13.7071 1.70711C14.0976 1.31658 14.0976 0.683418 13.7071 0.292893Z"/>
</symbol><symbol viewBox="0 0 50 51" id="behance" xmlns="http://www.w3.org/2000/svg">
<path d="M17.0717 19.0739H12.8485V23.8663H17.4161C18.2162 23.8663 18.878 23.6757 19.4028 23.2903C19.9222 22.912 20.1737 22.2852 20.1737 21.4256C20.1737 20.9483 20.0907 20.5546 19.9229 20.2486C19.7485 19.9428 19.5182 19.7032 19.2271 19.5358C18.9382 19.3615 18.6115 19.2402 18.2326 19.1754C17.861 19.1022 17.4707 19.0739 17.0717 19.0739Z"/>
<path d="M17.7561 26.9479H12.8486L12.8485 32.5933H17.666C18.1118 32.5933 18.5344 32.5543 18.9319 32.4656C19.3358 32.3768 19.6943 32.237 19.996 32.0299C20.2979 31.8313 20.5474 31.5575 20.7293 31.211C20.9118 30.8676 20.9996 30.422 20.9996 29.8824C20.9996 28.8258 20.7015 28.0751 20.11 27.6196C19.5175 27.1704 18.7278 26.9479 17.7561 26.9479Z"/>
<path d="M36.6228 24.725C36.1386 24.1886 35.3168 23.8981 34.3155 23.8981C33.6642 23.8981 33.1257 24.0078 32.6939 24.2311C32.2719 24.4514 31.9251 24.727 31.6605 25.05C31.3975 25.3786 31.2183 25.7253 31.1143 26.0958C31.0089 26.4571 30.9472 26.7847 30.9283 27.0743H37.5625C37.4651 26.035 37.1093 25.2653 36.6228 24.725Z"/>
<path fill-rule="evenodd" clip-rule="evenodd" d="M1.36242 7.82361C0 10.4975 0 13.9978 0 20.9985V30.9985C0 37.9991 0 41.4995 1.36242 44.1734C2.56084 46.5254 4.47309 48.4377 6.82512 49.6361C9.49901 50.9985 12.9993 50.9985 20 50.9985H30C37.0007 50.9985 40.501 50.9985 43.1749 49.6361C45.5269 48.4377 47.4392 46.5254 48.6376 44.1734C50 41.4995 50 37.9991 50 30.9985V20.9985C50 13.9978 50 10.4975 48.6376 7.82361C47.4392 5.47158 45.5269 3.55932 43.1749 2.36091C40.501 0.998489 37.0007 0.998489 30 0.998489H20C12.9993 0.998489 9.49901 0.998489 6.82512 2.36091C4.47309 3.55932 2.56084 5.47158 1.36242 7.82361ZM8.33333 36.0854V15.5818L18 15.582C18.9811 15.582 19.8662 15.6668 20.6755 15.842C21.48 16.0125 22.1667 16.2971 22.7467 16.6871C23.3178 17.0779 23.7642 17.5978 24.0844 18.2518C24.3967 18.8964 24.5532 19.7025 24.5532 20.6571C24.5532 21.6895 24.3189 22.5515 23.8507 23.2414C23.3782 23.9289 22.686 24.4936 21.759 24.9326C23.0211 25.2947 23.9554 25.9332 24.5749 26.8418C25.1978 27.7558 25.5019 28.8499 25.5019 30.1321C25.5019 31.1715 25.303 32.0674 24.9055 32.8201C24.5037 33.5825 23.9574 34.2004 23.2837 34.677C22.605 35.1572 21.8249 35.5113 20.9515 35.741C20.0878 35.9699 19.1899 36.0854 18.2714 36.0854H8.33333ZM30.0936 18.9804V16.9572H38.4053V18.9804H30.0936ZM31.3423 21.4245C32.2739 21.022 33.3012 20.8189 34.4387 20.8189C35.6948 20.8189 36.7942 21.0613 37.7369 21.5533C38.6767 22.0392 39.4473 22.697 40.0522 23.5207C40.6578 24.3436 41.0876 25.2831 41.3568 26.3388C41.6239 27.3914 41.7175 28.4924 41.6408 29.6439H30.9283C30.9283 30.8179 31.3248 31.9283 31.9376 32.5247C32.5483 33.1211 33.431 33.4222 34.5744 33.4222C35.3971 33.4222 36.1085 33.2133 36.705 32.7983C37.2953 32.3849 37.655 31.9428 37.7939 31.4835H41.3841C40.8069 33.2701 39.9315 34.5454 38.7372 35.3132C37.5562 36.0847 36.1165 36.4696 34.4387 36.4696C33.2692 36.4696 32.2169 36.281 31.2717 35.9074C30.3272 35.5306 29.5383 35.0004 28.8744 34.3106C28.2275 33.6178 27.725 32.7985 27.3667 31.837C27.0124 30.8793 26.834 29.8206 26.834 28.6722C26.834 27.562 27.0187 26.525 27.3815 25.5667C27.7517 24.6052 28.264 23.7753 28.9371 23.0793C29.6114 22.3793 30.4111 21.8278 31.3423 21.4245Z"/>
</symbol><symbol viewBox="0 0 50 50" id="insta" xmlns="http://www.w3.org/2000/svg">
<path d="M31.0613 24.9992C31.0613 21.652 28.3478 18.9388 25.0009 18.9388C21.6537 18.9388 18.9405 21.652 18.9405 24.9992C18.9405 28.3461 21.6537 31.0597 25.0009 31.0597C28.3478 31.0597 31.0613 28.3461 31.0613 24.9992Z"/>
<path fill-rule="evenodd" clip-rule="evenodd" d="M24.3949 10.0942C24.0273 10.094 23.6866 10.0939 23.3699 10.0944V10.0898C19.9814 10.0936 19.3314 10.1164 17.6542 10.1921C15.8815 10.2736 14.919 10.569 14.2781 10.819C13.4297 11.1493 12.8236 11.5432 12.1873 12.1796C11.5509 12.8159 11.1563 13.4219 10.8267 14.2704C10.5779 14.9113 10.2817 15.8734 10.2006 17.6461C10.1135 19.5627 10.0961 20.1354 10.0961 24.9905C10.0961 29.8457 10.1135 30.4214 10.2006 32.338C10.2813 34.1107 10.5779 35.0728 10.8267 35.7129C11.157 36.5618 11.5509 37.1663 12.1873 37.8026C12.8236 38.439 13.4297 38.8329 14.2781 39.1624C14.9194 39.4113 15.8815 39.7075 17.6542 39.7893C19.5708 39.8764 20.1461 39.8954 25.0009 39.8954C29.8553 39.8954 30.4311 39.8764 32.3477 39.7893C34.1203 39.7083 35.0832 39.4128 35.7233 39.1628C36.5722 38.8333 37.1763 38.4394 37.8127 37.803C38.449 37.167 38.8437 36.5629 39.1732 35.7144C39.4221 35.0743 39.7183 34.1122 39.7993 32.3395C39.8864 30.4229 39.9054 29.8472 39.9054 24.9951C39.9054 20.1429 39.8864 19.5672 39.7993 17.6506C39.7187 15.8779 39.4221 14.9158 39.1732 14.2757C38.8429 13.4272 38.449 12.8212 37.8127 12.1849C37.1767 11.5485 36.5718 11.1546 35.7233 10.8251C35.0824 10.5762 34.1203 10.28 32.3477 10.1989C30.4307 10.1118 29.8553 10.0944 25.0009 10.0944C24.7911 10.0944 24.5893 10.0943 24.3949 10.0942ZM32.5242 15.2942C32.5242 14.0893 33.5014 13.1132 34.7059 13.1132C35.9104 13.1132 36.8877 14.0897 36.8877 15.2942C36.8877 16.4987 35.9104 17.476 34.7059 17.476C33.5014 17.476 32.5242 16.4987 32.5242 15.2942ZM15.6641 24.9992C15.6641 19.843 19.8446 15.6624 25.0009 15.6624C30.1572 15.6624 34.3362 19.843 34.3362 24.9992C34.3362 30.1555 30.1572 34.3342 25.0009 34.3342C19.8446 34.3342 15.6641 30.1555 15.6641 24.9992Z"/>
<path fill-rule="evenodd" clip-rule="evenodd" d="M1.36242 6.82512C0 9.49901 0 12.9993 0 20V30C0 37.0007 0 40.501 1.36242 43.1749C2.56084 45.5269 4.47309 47.4392 6.82512 48.6376C9.49901 50 12.9993 50 20 50H30C37.0007 50 40.501 50 43.1749 48.6376C45.5269 47.4392 47.4392 45.5269 48.6376 43.1749C50 40.501 50 37.0007 50 30V20C50 12.9993 50 9.49901 48.6376 6.82512C47.4392 4.47309 45.5269 2.56084 43.1749 1.36242C40.501 0 37.0007 0 30 0H20C12.9993 0 9.49901 0 6.82512 1.36242C4.47309 2.56084 2.56084 4.47309 1.36242 6.82512ZM17.5042 6.92782C19.4435 6.83957 20.0632 6.81798 25.0009 6.81798H24.9952C29.9345 6.81798 30.5519 6.83957 32.4912 6.92782C34.4268 7.01645 35.7487 7.32288 36.9078 7.77249C38.1047 8.23649 39.116 8.85769 40.1274 9.86902C41.1387 10.8796 41.7599 11.894 42.2258 13.0898C42.6727 14.2458 42.9795 15.567 43.0704 17.5025C43.1576 19.4418 43.1803 20.0615 43.1803 24.9992C43.1803 29.937 43.1576 30.5551 43.0704 32.4945C42.9795 34.4293 42.6727 35.7508 42.2258 36.9072C41.7599 38.1026 41.1387 39.117 40.1274 40.1276C39.1172 41.1389 38.1043 41.7616 36.9089 42.226C35.7521 42.6756 34.4294 42.982 32.4939 43.0707C30.5545 43.1589 29.9368 43.1805 24.9986 43.1805C20.0613 43.1805 19.442 43.1589 17.5027 43.0707C15.5675 42.982 14.2459 42.6756 13.0892 42.226C11.8941 41.7616 10.8798 41.1389 9.86956 40.1276C8.8586 39.117 8.23741 38.1026 7.77265 36.9068C7.32342 35.7508 7.01699 34.4296 6.92798 32.4941C6.8401 30.5548 6.81814 29.937 6.81814 24.9992C6.81814 20.0615 6.84086 19.4415 6.9276 17.5021C7.01472 15.5673 7.32153 14.2458 7.77227 13.0894C8.23817 11.894 8.85936 10.8796 9.87069 9.86902C10.8813 8.85806 11.8956 8.23687 13.0914 7.77249C14.2475 7.32288 15.5686 7.01645 17.5042 6.92782Z"/>
</symbol><symbol viewBox="0 0 50 51" id="telegram" xmlns="http://www.w3.org/2000/svg">
<path fill-rule="evenodd" clip-rule="evenodd" d="M1.36242 7.82361C0 10.4975 0 13.9978 0 20.9985V30.9985C0 37.9991 0 41.4995 1.36242 44.1734C2.56084 46.5254 4.47309 48.4377 6.82512 49.6361C9.49901 50.9985 12.9993 50.9985 20 50.9985H30C37.0007 50.9985 40.501 50.9985 43.1749 49.6361C45.5269 48.4377 47.4392 46.5254 48.6376 44.1734C50 41.4995 50 37.9991 50 30.9985V20.9985C50 13.9978 50 10.4975 48.6376 7.82361C47.4392 5.47158 45.5269 3.55932 43.1749 2.36091C40.501 0.998489 37.0007 0.998489 30 0.998489H20C12.9993 0.998489 9.49901 0.998489 6.82512 2.36091C4.47309 3.55932 2.56084 5.47158 1.36242 7.82361ZM27.483 16.6387C24.4976 17.8804 18.531 20.4505 9.58316 24.3489C8.13017 24.9267 7.36903 25.492 7.29974 26.0447C7.18264 26.9788 8.3524 27.3466 9.9453 27.8475C10.162 27.9156 10.3865 27.9862 10.6166 28.061C12.1838 28.5704 14.2919 29.1664 15.3878 29.1901C16.3819 29.2115 17.4915 28.8017 18.7164 27.9606C27.0767 22.3172 31.3923 19.4647 31.6632 19.4032C31.8544 19.3598 32.1192 19.3053 32.2987 19.4648C32.4782 19.6243 32.4605 19.9264 32.4415 20.0075C32.3256 20.5015 27.7339 24.7704 25.3577 26.9795C24.6169 27.6682 24.0915 28.1567 23.9841 28.2683C23.7435 28.5182 23.4982 28.7546 23.2625 28.9818C21.8066 30.3853 20.7148 31.4378 23.323 33.1566C24.5764 33.9826 25.5794 34.6656 26.58 35.347C27.6727 36.0912 28.7626 36.8334 30.1728 37.7578C30.5321 37.9933 30.8752 38.2379 31.2094 38.4762C32.4811 39.3828 33.6236 40.1973 35.0351 40.0674C35.8553 39.9919 36.7025 39.2207 37.1327 36.9206C38.1496 31.4847 40.1483 19.7068 40.6102 14.8534C40.6507 14.4282 40.5997 13.884 40.5589 13.6451C40.518 13.4062 40.4325 13.0659 40.122 12.8139C39.7543 12.5155 39.1865 12.4526 38.9326 12.457C37.7782 12.4774 36.007 13.0933 27.483 16.6387Z"/>
</symbol></svg>