<svg width="46" height="46" viewBox="0 0 46 46" fill="none" xmlns="http://www.w3.org/2000/svg">
<rect x="0.50708" y="4.7438" width="37.2115" height="37.2876" rx="8.6511" fill="#2E4332"/>
<path d="M33.3312 28.1367C33.3918 28.1367 33.4221 28.1972 33.4221 28.3183C33.4221 28.4394 33.3918 28.5 33.3312 28.5H29.94C29.617 28.5 29.3445 28.5101 29.1225 28.5303C28.9004 28.5505 28.7188 28.5606 28.5775 28.5606C28.2545 28.5606 27.9719 28.4899 27.7296 28.3486C27.5076 28.1871 27.225 27.9045 26.8818 27.5008C26.5589 27.0971 25.9735 26.3199 25.1257 25.1693C25.0247 25.028 24.9036 24.8766 24.7623 24.7151C24.6412 24.5335 24.4999 24.3316 24.3384 24.1096L20.3719 18.7805L19.7057 19.4466V26.0474C19.7057 26.6732 19.7562 27.1274 19.8571 27.41C19.9581 27.6926 20.1498 27.8843 20.4324 27.9853C20.7352 28.0862 21.2096 28.1367 21.8555 28.1367C21.9363 28.1367 21.9767 28.1972 21.9767 28.3183C21.9767 28.4394 21.9363 28.5 21.8555 28.5C21.1894 28.5 20.6646 28.4899 20.281 28.4697L18.0101 28.4394L15.7695 28.4697C15.3658 28.4899 14.8208 28.5 14.1344 28.5C14.0941 28.5 14.0739 28.4394 14.0739 28.3183C14.0739 28.1972 14.0941 28.1367 14.1344 28.1367C14.7804 28.1367 15.2548 28.0862 15.5575 27.9853C15.8603 27.8843 16.0622 27.6926 16.1631 27.41C16.2842 27.1072 16.3448 26.653 16.3448 26.0474V12.0283C16.3448 11.4227 16.2842 10.9786 16.1631 10.696C16.0622 10.4134 15.8603 10.2217 15.5575 10.1207C15.2749 9.99962 14.8208 9.93906 14.195 9.93906C14.1344 9.93906 14.1042 9.87851 14.1042 9.75739C14.1042 9.63628 14.1344 9.57572 14.195 9.57572L15.7998 9.606C16.7283 9.64637 17.4651 9.66655 18.0101 9.66655C18.6157 9.66655 19.3828 9.64637 20.3113 9.606L21.8555 9.57572C21.9161 9.57572 21.9464 9.63628 21.9464 9.75739C21.9464 9.87851 21.9161 9.93906 21.8555 9.93906C21.2298 9.93906 20.7655 9.99962 20.4627 10.1207C20.1801 10.2419 19.9783 10.4538 19.8571 10.7566C19.7562 11.0392 19.7057 11.4833 19.7057 12.0889V18.508L25.3982 12.6944C25.9836 12.109 26.2763 11.5741 26.2763 11.0897C26.2763 10.7263 26.1148 10.4437 25.7918 10.2419C25.4688 10.04 25.0146 9.93906 24.4292 9.93906C24.3687 9.93906 24.3384 9.87851 24.3384 9.75739C24.3384 9.63628 24.3687 9.57572 24.4292 9.57572L25.8524 9.606C26.7405 9.64637 27.5682 9.66655 28.3352 9.66655C29.1628 9.66655 30.0207 9.64637 30.9089 9.606L32.2715 9.57572C32.332 9.57572 32.3623 9.63628 32.3623 9.75739C32.3623 9.87851 32.332 9.93906 32.2715 9.93906C31.3429 9.93906 30.3235 10.2116 29.2133 10.7566C28.1031 11.2814 27.0938 11.9879 26.1854 12.8761L22.7639 16.3582L27.2452 22.414C28.5573 24.2912 29.5363 25.6235 30.1822 26.4108C30.8484 27.1778 31.3833 27.6623 31.787 27.8641C32.1907 28.0458 32.7055 28.1367 33.3312 28.1367Z" fill="white"/>
<path d="M4.36201 34.2953C4.56098 34.2953 4.72968 34.3458 4.8681 34.4467C5.0094 34.5447 5.11465 34.6774 5.18386 34.8446C5.25595 35.0119 5.292 35.1979 5.292 35.4026C5.292 35.6247 5.25019 35.8208 5.16656 35.9909C5.08293 36.1611 4.96182 36.2951 4.80321 36.3932C4.64461 36.4884 4.45573 36.5359 4.23657 36.5359C4.16447 36.5359 3.99289 36.5172 3.72183 36.4797V37.6173H3.47527V34.9701C3.47527 34.7423 3.41471 34.575 3.2936 34.4683L3.46662 34.2953C3.51564 34.3299 3.56322 34.3775 3.60936 34.438C3.6555 34.4986 3.68866 34.5649 3.70885 34.637C3.83285 34.4092 4.05057 34.2953 4.36201 34.2953ZM4.21494 36.3024C4.48601 36.3024 4.68931 36.2245 4.82484 36.0688C4.96326 35.9102 5.03247 35.6953 5.03247 35.4243C5.03247 35.1676 4.97335 34.9542 4.85512 34.7841C4.73977 34.6139 4.57828 34.5289 4.37066 34.5289C4.20629 34.5289 4.05922 34.5793 3.92945 34.6803C3.80257 34.7812 3.73336 34.9124 3.72183 35.0739V36.2634C3.98713 36.2894 4.1515 36.3024 4.21494 36.3024ZM7.51016 36.1293C7.51016 36.1697 7.52314 36.2043 7.54909 36.2331C7.57793 36.2591 7.61109 36.2721 7.64858 36.2721C7.70625 36.2721 7.74807 36.2476 7.77402 36.1985L7.96434 36.3413C7.94128 36.3903 7.9009 36.4321 7.84323 36.4667C7.78556 36.4984 7.72067 36.5143 7.64858 36.5143C7.53323 36.5143 7.43807 36.4783 7.36309 36.4062C7.28812 36.3341 7.25063 36.2404 7.25063 36.125V34.9917C7.25063 34.8331 7.20882 34.7134 7.12519 34.6327C7.04444 34.5491 6.92477 34.5072 6.76617 34.5072C6.62775 34.5072 6.50663 34.5447 6.40282 34.6197C6.30189 34.6918 6.19664 34.8014 6.08706 34.9485V36.4797H5.82752V33.3393H6.08706V34.6457C6.26873 34.3977 6.50519 34.2737 6.79645 34.2737C7.03291 34.2737 7.21026 34.3342 7.32849 34.4553C7.4496 34.5765 7.51016 34.7509 7.51016 34.9787V36.1293ZM9.19013 36.5359C8.98539 36.5359 8.80227 36.4884 8.64079 36.3932C8.48218 36.298 8.35818 36.1654 8.26879 35.9952C8.17939 35.8251 8.1347 35.6319 8.1347 35.4156C8.1347 35.1993 8.17939 35.0061 8.26879 34.836C8.36107 34.663 8.48651 34.5289 8.64511 34.4337C8.8066 34.3357 8.98971 34.2866 9.19446 34.2866C9.39632 34.2866 9.57655 34.3357 9.73515 34.4337C9.89664 34.5289 10.0221 34.6615 10.1115 34.8317C10.2038 35.0018 10.2499 35.195 10.2499 35.4113C10.2499 35.6276 10.2038 35.8208 10.1115 35.9909C10.0221 36.1611 9.89664 36.2951 9.73515 36.3932C9.57655 36.4884 9.39487 36.5359 9.19013 36.5359ZM9.19446 36.3024C9.4338 36.3024 9.62557 36.2202 9.76976 36.0558C9.91682 35.8914 9.99036 35.6766 9.99036 35.4113C9.99036 35.2354 9.9572 35.0811 9.89087 34.9485C9.82455 34.8129 9.73083 34.7077 9.60971 34.6327C9.48859 34.5577 9.35018 34.5202 9.19446 34.5202C9.03585 34.5202 8.89599 34.5577 8.77488 34.6327C8.65376 34.7077 8.56004 34.8144 8.49372 34.9528C8.42739 35.0883 8.39423 35.2426 8.39423 35.4156C8.39423 35.5886 8.42739 35.7429 8.49372 35.8784C8.56004 36.0111 8.65376 36.1149 8.77488 36.1899C8.89599 36.2649 9.03585 36.3024 9.19446 36.3024ZM11.3315 36.5359C11.1354 36.5359 10.9912 36.4811 10.899 36.3716C10.8067 36.2591 10.7605 36.0918 10.7605 35.8698V33.7892H11.0201V34.3386H11.6992V34.5721H11.0201V35.8698C11.0201 36.1582 11.1239 36.3024 11.3315 36.3024C11.4959 36.3024 11.6228 36.2144 11.7122 36.0385L11.9068 36.1726C11.8405 36.2937 11.7612 36.3845 11.6689 36.4451C11.5766 36.5057 11.4642 36.5359 11.3315 36.5359ZM13.1609 36.5359C12.9561 36.5359 12.773 36.4884 12.6115 36.3932C12.4529 36.298 12.3289 36.1654 12.2395 35.9952C12.1501 35.8251 12.1054 35.6319 12.1054 35.4156C12.1054 35.1993 12.1501 35.0061 12.2395 34.836C12.3318 34.663 12.4572 34.5289 12.6158 34.4337C12.7773 34.3357 12.9604 34.2866 13.1652 34.2866C13.367 34.2866 13.5473 34.3357 13.7059 34.4337C13.8674 34.5289 13.9928 34.6615 14.0822 34.8317C14.1745 35.0018 14.2206 35.195 14.2206 35.4113C14.2206 35.6276 14.1745 35.8208 14.0822 35.9909C13.9928 36.1611 13.8674 36.2951 13.7059 36.3932C13.5473 36.4884 13.3656 36.5359 13.1609 36.5359ZM13.1652 36.3024C13.4045 36.3024 13.5963 36.2202 13.7405 36.0558C13.8875 35.8914 13.9611 35.6766 13.9611 35.4113C13.9611 35.2354 13.9279 35.0811 13.8616 34.9485C13.7953 34.8129 13.7015 34.7077 13.5804 34.6327C13.4593 34.5577 13.3209 34.5202 13.1652 34.5202C13.0066 34.5202 12.8667 34.5577 12.7456 34.6327C12.6245 34.7077 12.5308 34.8144 12.4644 34.9528C12.3981 35.0883 12.365 35.2426 12.365 35.4156C12.365 35.5886 12.3981 35.7429 12.4644 35.8784C12.5308 36.0111 12.6245 36.1149 12.7456 36.1899C12.8667 36.2649 13.0066 36.3024 13.1652 36.3024ZM15.7607 37.6995C15.6396 37.6995 15.5286 37.6707 15.4277 37.613C15.3267 37.5553 15.2474 37.476 15.1898 37.3751C15.1321 37.277 15.1033 37.1675 15.1033 37.0463C15.1033 36.8272 15.1854 36.6498 15.3498 36.5143C15.1278 36.4624 14.9475 36.3341 14.8091 36.1293C14.6736 35.9217 14.6058 35.6766 14.6058 35.394C14.6058 35.1719 14.6505 34.9773 14.7399 34.81C14.8293 34.6428 14.9547 34.513 15.1162 34.4207C15.2806 34.3285 15.4695 34.2823 15.6829 34.2823C15.7953 34.2823 15.8746 34.2866 15.9208 34.2953L16.1803 34.3256H16.4269V36.9944C16.4269 37.2049 16.3649 37.3751 16.2409 37.5049C16.1198 37.6346 15.9597 37.6995 15.7607 37.6995ZM15.5055 36.2894C15.6382 36.2894 15.768 36.2389 15.8948 36.138C15.9756 36.0745 16.0405 36.0039 16.0895 35.926C16.1414 35.8482 16.1673 35.7775 16.1673 35.7141V34.5548L15.7737 34.5332H15.631C15.4868 34.5332 15.3556 34.5721 15.2374 34.65C15.122 34.725 15.0312 34.8302 14.9648 34.9658C14.8985 35.0984 14.8654 35.2484 14.8654 35.4156C14.8654 35.5742 14.8942 35.7213 14.9519 35.8568C15.0095 35.9895 15.0874 36.0947 15.1854 36.1726C15.2835 36.2504 15.3902 36.2894 15.5055 36.2894ZM15.7824 37.4486C15.8977 37.4486 15.9886 37.4083 16.0549 37.3275C16.1241 37.2468 16.1616 37.1314 16.1673 36.9815V36.1423C16.1616 36.1481 16.1399 36.1784 16.1025 36.2331C16.0679 36.285 16.026 36.3312 15.977 36.3716C15.9251 36.4177 15.8429 36.4725 15.7305 36.5359C15.6526 36.5821 15.6079 36.6095 15.5964 36.6181C15.4464 36.7133 15.3714 36.8546 15.3714 37.042C15.3714 37.1574 15.4104 37.254 15.4882 37.3318C15.569 37.4097 15.667 37.4486 15.7824 37.4486ZM17.9968 34.2866C18.0833 34.2866 18.1698 34.2996 18.2563 34.3256V34.5678C18.1727 34.5476 18.0891 34.5375 18.0055 34.5375C17.8584 34.5375 17.7387 34.5736 17.6464 34.6457C17.5542 34.7178 17.472 34.8201 17.3999 34.9528V36.4927H17.1404V34.9787C17.1404 34.7509 17.0798 34.5837 16.9587 34.477L17.1317 34.3039C17.1836 34.3357 17.2326 34.3832 17.2788 34.4467C17.3249 34.5101 17.3581 34.5808 17.3783 34.6586C17.459 34.526 17.5398 34.4352 17.6205 34.3861C17.7214 34.3198 17.8469 34.2866 17.9968 34.2866ZM19.4011 36.5359C19.2022 36.5359 19.032 36.4855 18.8907 36.3845C18.7494 36.2836 18.6427 36.1495 18.5706 35.9823C18.4985 35.815 18.4625 35.6304 18.4625 35.4286C18.4625 35.2065 18.5057 35.0105 18.5923 34.8403C18.6788 34.6673 18.8028 34.5332 18.9643 34.438C19.1257 34.3429 19.3146 34.2953 19.5309 34.2953C19.5972 34.2953 19.6809 34.2996 19.7818 34.3083C19.8827 34.314 19.9721 34.3227 20.05 34.3342H20.3095V36.1207C20.3095 36.1784 20.3225 36.223 20.3484 36.2548C20.3773 36.2836 20.4119 36.298 20.4522 36.298C20.5041 36.298 20.546 36.2735 20.5777 36.2245L20.7637 36.3716C20.7204 36.4321 20.6714 36.4739 20.6166 36.497C20.5647 36.523 20.5041 36.5359 20.4349 36.5359C20.334 36.5359 20.2446 36.5013 20.1668 36.4321C20.0918 36.3629 20.0543 36.2793 20.0543 36.1812C19.9851 36.2966 19.8942 36.3845 19.7818 36.4451C19.6693 36.5057 19.5424 36.5359 19.4011 36.5359ZM19.4055 36.3024C19.5352 36.3024 19.652 36.2706 19.7558 36.2072C19.8596 36.1437 19.9375 36.0601 19.9894 35.9563C20.0298 35.8727 20.05 35.7804 20.05 35.6795V34.5462L19.7645 34.5375L19.5136 34.5289C19.2512 34.5289 19.0536 34.6111 18.921 34.7754C18.7883 34.9398 18.722 35.1546 18.722 35.4199C18.722 35.6651 18.7797 35.8741 18.895 36.0471C19.0133 36.2173 19.1834 36.3024 19.4055 36.3024ZM22.0359 34.2953C22.2349 34.2953 22.4036 34.3458 22.542 34.4467C22.6833 34.5447 22.7886 34.6774 22.8578 34.8446C22.9299 35.0119 22.9659 35.1979 22.9659 35.4026C22.9659 35.6247 22.9241 35.8208 22.8405 35.9909C22.7569 36.1611 22.6357 36.2951 22.4771 36.3932C22.3185 36.4884 22.1297 36.5359 21.9105 36.5359C21.8384 36.5359 21.6668 36.5172 21.3958 36.4797V37.6173H21.1492V34.9701C21.1492 34.7423 21.0886 34.575 20.9675 34.4683L21.1405 34.2953C21.1896 34.3299 21.2371 34.3775 21.2833 34.438C21.3294 34.4986 21.3626 34.5649 21.3828 34.637C21.5068 34.4092 21.7245 34.2953 22.0359 34.2953ZM21.8889 36.3024C22.1599 36.3024 22.3632 36.2245 22.4988 36.0688C22.6372 35.9102 22.7064 35.6953 22.7064 35.4243C22.7064 35.1676 22.6473 34.9542 22.529 34.7841C22.4137 34.6139 22.2522 34.5289 22.0446 34.5289C21.8802 34.5289 21.7331 34.5793 21.6034 34.6803C21.4765 34.7812 21.4073 34.9124 21.3958 35.0739V36.2634C21.6611 36.2894 21.8254 36.3024 21.8889 36.3024ZM25.1841 36.1293C25.1841 36.1697 25.1971 36.2043 25.223 36.2331C25.2519 36.2591 25.285 36.2721 25.3225 36.2721C25.3802 36.2721 25.422 36.2476 25.4479 36.1985L25.6383 36.3413C25.6152 36.3903 25.5748 36.4321 25.5172 36.4667C25.4595 36.4984 25.3946 36.5143 25.3225 36.5143C25.2072 36.5143 25.112 36.4783 25.037 36.4062C24.962 36.3341 24.9246 36.2404 24.9246 36.125V34.9917C24.9246 34.8331 24.8827 34.7134 24.7991 34.6327C24.7184 34.5491 24.5987 34.5072 24.4401 34.5072C24.3017 34.5072 24.1806 34.5447 24.0767 34.6197C23.9758 34.6918 23.8706 34.8014 23.761 34.9485V36.4797H23.5015V33.3393H23.761V34.6457C23.9427 34.3977 24.1791 34.2737 24.4704 34.2737C24.7068 34.2737 24.8842 34.3342 25.0024 34.4553C25.1235 34.5765 25.1841 34.7509 25.1841 34.9787V36.1293ZM26.7992 36.5359C26.5829 36.5359 26.3998 36.4912 26.2498 36.4018C26.0999 36.3124 25.986 36.1899 25.9081 36.0342C25.8331 35.8756 25.7956 35.6968 25.7956 35.4978C25.7956 35.3017 25.8317 35.1114 25.9038 34.9268C25.9788 34.7423 26.0898 34.5909 26.2369 34.4726C26.3868 34.3544 26.5685 34.2953 26.7819 34.2953C26.9232 34.2953 27.0544 34.3227 27.1755 34.3775C27.2966 34.4323 27.3918 34.5101 27.461 34.6111C27.5331 34.712 27.5691 34.8288 27.5691 34.9614C27.5691 35.1748 27.4783 35.3406 27.2966 35.4589C27.1149 35.5742 26.8641 35.6304 26.544 35.6276L26.0682 35.6232C26.0941 35.8453 26.1676 36.014 26.2888 36.1293C26.4128 36.2447 26.5829 36.3024 26.7992 36.3024C26.9289 36.3024 27.0486 36.285 27.1582 36.2504C27.2707 36.213 27.3788 36.1567 27.4826 36.0817L27.6124 36.2548C27.5028 36.3413 27.3774 36.4105 27.2361 36.4624C27.0976 36.5114 26.952 36.5359 26.7992 36.5359ZM26.6002 35.4026C27.0731 35.4026 27.3096 35.2541 27.3096 34.9571C27.3096 34.8129 27.2591 34.7062 27.1582 34.637C27.0602 34.5649 26.939 34.5289 26.7949 34.5289C26.6334 34.5289 26.4964 34.575 26.3839 34.6673C26.2743 34.7596 26.1922 34.8735 26.1374 35.009C26.0826 35.1445 26.0552 35.2758 26.0552 35.4026H26.6002ZM28.9923 34.2866C29.0788 34.2866 29.1654 34.2996 29.2519 34.3256V34.5678C29.1682 34.5476 29.0846 34.5375 29.001 34.5375C28.8539 34.5375 28.7342 34.5736 28.642 34.6457C28.5497 34.7178 28.4675 34.8201 28.3954 34.9528V36.4927H28.1359V34.9787C28.1359 34.7509 28.0753 34.5837 27.9542 34.477L28.1272 34.3039C28.1791 34.3357 28.2282 34.3832 28.2743 34.4467C28.3204 34.5101 28.3536 34.5808 28.3738 34.6586C28.4545 34.526 28.5353 34.4352 28.616 34.3861C28.7169 34.3198 28.8424 34.2866 28.9923 34.2866Z" fill="white"/>
<path d="M5.13195 25.6584L5.12763 27.2242V28.3143C5.12763 28.5363 5.06851 28.7137 4.95028 28.8463C4.83205 28.9819 4.67489 29.0496 4.4788 29.0496C4.35768 29.0496 4.24666 29.0193 4.14573 28.9588C4.04768 28.9011 3.96982 28.8204 3.91215 28.7166C3.85736 28.6127 3.82996 28.496 3.82996 28.3662C3.82996 28.248 3.85159 28.1427 3.89485 28.0504C3.94099 27.9581 4.00299 27.8918 4.08085 27.8514C3.88764 27.837 3.73336 27.7736 3.61801 27.6611C3.50266 27.5458 3.44499 27.3987 3.44499 27.2199V26.2813C3.44499 26.0535 3.38443 25.8862 3.26332 25.7795L3.43634 25.6065C3.50266 25.6497 3.56322 25.7161 3.61801 25.8055C3.6728 25.8949 3.70164 25.9915 3.70452 26.0953V27.1075C3.70452 27.2776 3.74201 27.4045 3.81699 27.4881C3.89485 27.5717 4.01164 27.6135 4.16736 27.6135C4.29424 27.6135 4.4067 27.5861 4.50475 27.5314C4.60568 27.4766 4.70661 27.3872 4.80754 27.2632C4.83061 27.2315 4.84647 27.2041 4.85512 27.181C4.86377 27.155 4.8681 27.1204 4.8681 27.0772L4.87242 25.6584H5.13195ZM4.87675 27.4838C4.83926 27.5443 4.80465 27.5919 4.77293 27.6265C4.74121 27.6582 4.70373 27.6914 4.66047 27.726C4.58261 27.7808 4.4961 27.8341 4.40094 27.8861C4.28559 27.9466 4.2034 28.0129 4.15438 28.085C4.10536 28.1571 4.08085 28.248 4.08085 28.3575C4.08085 28.4931 4.11545 28.5998 4.18466 28.6776C4.25675 28.7584 4.35336 28.7987 4.47447 28.7987C4.5927 28.7987 4.68642 28.7569 4.75563 28.6733C4.82772 28.5897 4.86521 28.4758 4.8681 28.3316L4.87675 27.4838ZM6.72744 27.8644C6.5227 27.8644 6.33958 27.8168 6.1781 27.7217C6.01949 27.6265 5.89549 27.4939 5.8061 27.3237C5.7167 27.1536 5.67201 26.9604 5.67201 26.7441C5.67201 26.5278 5.7167 26.3346 5.8061 26.1645C5.89838 25.9915 6.02382 25.8574 6.18242 25.7622C6.34391 25.6642 6.52702 25.6151 6.73177 25.6151C6.93362 25.6151 7.11386 25.6642 7.27246 25.7622C7.43395 25.8574 7.55939 25.99 7.64878 26.1602C7.74106 26.3303 7.7872 26.5235 7.7872 26.7398C7.7872 26.9561 7.74106 27.1493 7.64878 27.3194C7.55939 27.4895 7.43395 27.6236 7.27246 27.7217C7.11386 27.8168 6.93218 27.8644 6.72744 27.8644ZM6.73177 27.6308C6.97111 27.6308 7.16288 27.5487 7.30706 27.3843C7.45413 27.2199 7.52767 27.0051 7.52767 26.7398C7.52767 26.5639 7.4945 26.4096 7.42818 26.2769C7.36185 26.1414 7.26813 26.0362 7.14702 25.9612C7.0259 25.8862 6.88749 25.8487 6.73177 25.8487C6.57316 25.8487 6.4333 25.8862 6.31219 25.9612C6.19107 26.0362 6.09735 26.1429 6.03103 26.2813C5.9647 26.4168 5.93154 26.5711 5.93154 26.7441C5.93154 26.9171 5.9647 27.0714 6.03103 27.2069C6.09735 27.3396 6.19107 27.4434 6.31219 27.5184C6.4333 27.5934 6.57316 27.6308 6.73177 27.6308ZM10.4314 27.7001C10.3881 27.7606 10.3391 27.8024 10.2843 27.8255C10.2324 27.8514 10.1718 27.8644 10.1026 27.8644C10.0017 27.8644 9.9123 27.8298 9.83444 27.7606C9.75946 27.6914 9.72197 27.6078 9.72197 27.5097C9.523 27.7404 9.28221 27.8558 8.9996 27.8558C8.78333 27.8558 8.61463 27.8039 8.49351 27.7001C8.3724 27.5934 8.30607 27.4333 8.29454 27.2199V26.2942C8.29454 26.0664 8.23398 25.8992 8.11287 25.7925L8.28589 25.6195C8.3551 25.6627 8.4171 25.7305 8.47189 25.8228C8.52668 25.915 8.55407 26.0145 8.55407 26.1212V27.1075C8.55407 27.2718 8.59012 27.3987 8.66221 27.4881C8.73719 27.5775 8.8583 27.6222 9.02556 27.6222C9.18416 27.6222 9.31969 27.5876 9.43216 27.5184C9.54751 27.4492 9.64267 27.3396 9.71765 27.1896L9.72197 25.6584H9.9815L9.97718 27.4492C9.97718 27.5068 9.99016 27.5515 10.0161 27.5833C10.0449 27.6121 10.0795 27.6265 10.1199 27.6265C10.1718 27.6265 10.2136 27.602 10.2454 27.553L10.4314 27.7001ZM11.669 25.6151C11.7555 25.6151 11.842 25.6281 11.9285 25.6541V25.8963C11.8449 25.8761 11.7613 25.866 11.6777 25.866C11.5306 25.866 11.4109 25.9021 11.3186 25.9742C11.2264 26.0462 11.1442 26.1486 11.0721 26.2813V27.8212H10.8126V26.3072C10.8126 26.0794 10.752 25.9122 10.6309 25.8055L10.8039 25.6324C10.8558 25.6642 10.9048 25.7117 10.951 25.7752C10.9971 25.8386 11.0303 25.9093 11.0505 25.9871C11.1312 25.8545 11.2119 25.7636 11.2927 25.7146C11.3936 25.6483 11.5191 25.6151 11.669 25.6151Z" fill="white"/>
<ellipse cx="38.1515" cy="6.91168" rx="2.16346" ry="2.16788" transform="rotate(180 38.1515 6.91168)" fill="url(#paint0_linear_49_20)"/>
<defs>
<linearGradient id="paint0_linear_49_20" x1="38.1515" y1="4.74379" x2="38.1515" y2="9.07956" gradientUnits="userSpaceOnUse">
<stop stop-color="#2E4332"/>
<stop offset="1" stop-color="#2E4332" stop-opacity="0"/>
</linearGradient>
</defs>
</svg>
